<svg width="19" height="20" xmlns="http://www.w3.org/2000/svg"><path fill="none" d="M-1-1h582v402H-1z"/><path fill="#212121" d="M9.5.5c-5.525 0-10 4.36-10 9.74 0 4.305 2.865 7.956 6.838 9.243.5.091.683-.21.683-.469 0-.231-.008-.844-.013-1.656-2.781.587-3.368-1.307-3.368-1.307-.455-1.124-1.112-1.425-1.112-1.425-.906-.604.07-.591.07-.591 1.004.068 1.531 1.003 1.531 1.003.892 1.49 2.341 1.06 2.913.81.09-.63.347-1.058.633-1.302-2.22-.244-4.555-1.081-4.555-4.813 0-1.064.388-1.933 1.03-2.614-.113-.246-.45-1.237.087-2.578 0 0 .837-.261 2.75.998.8-.216 1.65-.323 2.5-.328.85.005 1.7.112 2.5.328 1.9-1.26 2.737-.998 2.737-.998.538 1.341.2 2.332.1 2.578a3.72 3.72 0 011.025 2.614c0 3.742-2.337 4.565-4.562 4.805.35.292.675.89.675 1.802 0 1.304-.013 2.351-.013 2.668 0 .255.175.56.688.462 4-1.278 6.863-4.931 6.863-9.23C19.5 4.862 15.022.5 9.5.5z"/></svg>